<svg xmlns="http://www.w3.org/2000/svg" viewBox="50 110 610 900" width="610" height="900"><style>
    :root {
  --apollon2-primary: var(--apollon-primary, #3e8acc);
  --apollon2-primary-contrast: var(--apollon-primary-contrast, #212529);
  --apollon2-secondary: var(--apollon-secondary, #6c757d);
  --apollon2-alert-warning-yellow: var(--apollon-alert-warning-yellow, #ffc107);
  --apollon2-alert-warning-background: var(--apollon-alert-warning-background, #fff3cd);
  --apollon2-alert-warning-border: var(--apollon-alert-warning-border, #ffeeba);
  --apollon2-background: var(--apollon-background, white);
  --apollon2-background-inverse: var(--apollon-background-inverse, #000000);
  --apollon2-background-variant: var(--apollon-background-variant, #f8f9fa);
  --apollon2-gray: var(--apollon-gray, #e9ecef);
  --apollon2-grid: var(--apollon-grid, rgba(36, 39, 36, 0.1));
  --apollon2-gray-variant: var(--apollon-gray-variant, #495057);
  --apollon2-alert-danger-color: var(--apollon-alert-danger-color, #721c24);
  --apollon2-alert-danger-background: var(--apollon-alert-danger-background, #f8d7da);
  --apollon2-alert-danger-border: var(--apollon-alert-danger-border, #f5c6cb);
  --apollon2-switch-box-border-color: var(--apollon-switch-box-border-color, #dee2e6);
  --apollon2-list-group-color: var(--apollon-list-group-color, #ffffff);
  --apollon2-btn-outline-secondary-color: var(--apollon-btn-outline-secondary-color, #6c757d);
  --apollon2-modal-bottom-border: var(--apollon-modal-bottom-border, #e9ecef);
    }
    text {
      font-family: Inter, system-ui, Avenir, Helvetica, Arial, sans-serif;
    }
  </style><defs><marker id="black-rhombus" viewBox="0 0 30 30" markerWidth="30" markerHeight="30" refX="15" refY="15" orient="auto" markerUnits="strokeWidth"><path d="M0,15 L15,22 L30,15 L15,8 z" fill="currentColor" stroke="currentColor" stroke-width="1.5"></path></marker><marker id="white-rhombus" viewBox="0 0 30 30" markerWidth="30" markerHeight="30" refX="15" refY="15" orient="auto" markerUnits="strokeWidth"><path d="M0,15 L15,22 L30,15 L15,8 z" fill="var(--apollon2-background)" stroke="currentColor" stroke-width="1.5"></path></marker><marker id="white-triangle" viewBox="0 0 30 30" markerWidth="22" markerHeight="30" refX="30" refY="15" orient="auto" markerUnits="strokeWidth"><path d="M0,1 L0,29 L30,15 z" fill="white" stroke="currentColor" stroke-width="1.5"></path></marker><marker id="black-triangle" viewBox="0 0 30 30" markerWidth="22" markerHeight="30" refX="30" refY="15" orient="auto" markerUnits="strokeWidth"><path d="M0,1 L0,29 L30,15 z" fill="currentColor" stroke="currentColor" stroke-width="1.5"></path></marker><marker id="black-arrow" viewBox="0 0 30 30" markerWidth="22" markerHeight="30" refX="30" refY="15" orient="auto" stroke="context-stroke" markerUnits="strokeWidth"><path d="M0,29 L30,15 L0,1" fill="none" stroke-width="1.5"></path></marker><marker id="usecase-arrow" viewBox="0 0 20 20" markerWidth="12" markerHeight="20" refX="10" refY="10" orient="auto" markerUnits="strokeWidth"><path d="M0,18 L20,10 L0,2" fill="none" stroke="currentColor" stroke-width="1"></path></marker><marker id="usecase-triangle" viewBox="0 0 20 20" markerWidth="14" markerHeight="20" refX="10" refY="10" orient="auto" markerUnits="strokeWidth"><path d="M0,2 L0,18 L20,10 z" fill="white" stroke="currentColor" stroke-width="1"></path></marker><marker id="required-interface" viewBox="0 0 36 36" markerWidth="30" markerHeight="36" refX="2" refY="18" orient="auto" markerUnits="strokeWidth"><path d="M 18,2 A 16,16 0 0,0 18,34" fill="none" stroke="currentColor" stroke-width="2"></path></marker><marker id="required-interface-threequarter" viewBox="-4 -13 16 26" markerWidth="20" markerHeight="26" refX="0" refY="0" orient="auto" markerUnits="strokeWidth"><path d="M 8 -12.5 C -3.5 -7.5 -3.3 7.9 8 12.5" fill="none" stroke="currentColor" stroke-width="2"></path></marker><marker id="required-interface-quarter" viewBox="-2 -8 6 16" markerWidth="16" markerHeight="20" refX="0" refY="0" orient="auto" markerUnits="strokeWidth"><path d="M 2 -7.8 C -1.5 -3 -1.2 3.4 2 7.8" fill="none" stroke="currentColor" stroke-width="1.5"></path></marker><marker id="bpmn-white-triangle" viewBox="0 0 20 20" markerWidth="15" markerHeight="20" refX="10" refY="10" orient="auto" markerUnits="strokeWidth"><path d="M0,18 L20,10 L0,2 z" fill="var(--apollon2-background)" stroke="currentColor" stroke-width="1.2"></path></marker><marker id="bpmn-white-circle" viewBox="0 0 20 20" markerWidth="12" markerHeight="20" refX="10" refY="10" orient="auto" markerUnits="strokeWidth"><circle cx="10" cy="10" r="8" fill="var(--apollon2-background)" stroke="currentColor" stroke-width="1.5"></circle></marker><marker id="bpmn-arrow" viewBox="0 0 20 20" markerWidth="15" markerHeight="20" refX="10" refY="10" orient="auto" markerUnits="strokeWidth"><path d="M2,18 L18,10 L2,2" fill="none" stroke="currentColor" stroke-width="1.5"></path></marker></defs><g><g transform="translate(270, 130)"><svg width="160" height="70" viewBox="0 0 160 70" overflow="visible"><g><rect stroke="var(--apollon2-primary-contrast)" fill="var(--apollon2-background)" stroke-width="1" x="0" y="0" width="160" height="70" rx="10" ry="10"></rect><text x="80" y="35" fill="var(--apollon2-primary-contrast)" dominant-baseline="central" text-anchor="middle" font-weight="600" font-family="Inter, system-ui, Avenir, Helvetica, Arial, sans-serif" pointer-events="none"><tspan x="80" dy="0">Terminal</tspan></text></g></svg></g><g transform="translate(70, 300)"><svg width="160" height="70" viewBox="0 0 160 70" overflow="visible"><g><rect stroke="var(--apollon2-primary-contrast)" fill="var(--apollon2-background)" stroke-width="1" x="0" y="0" width="160" height="70"></rect><text x="80" y="35" fill="var(--apollon2-primary-contrast)" dominant-baseline="central" text-anchor="middle" font-weight="600" font-family="Inter, system-ui, Avenir, Helvetica, Arial, sans-serif" pointer-events="none"><tspan x="80" dy="0">Process</tspan></text></g></svg></g><g transform="translate(480, 300)"><svg width="160" height="70" viewBox="0 0 160 70" overflow="visible"><g><rect stroke="var(--apollon2-primary-contrast)" fill="var(--apollon2-background)" stroke-width="1" x="0" y="0" width="160" height="70"></rect><text x="80" y="35" fill="var(--apollon2-primary-contrast)" dominant-baseline="central" text-anchor="middle" font-weight="600" font-family="Inter, system-ui, Avenir, Helvetica, Arial, sans-serif" pointer-events="none"><tspan x="80" dy="0">Process</tspan></text></g></svg></g><g transform="translate(280, 460)"><svg width="160" height="70" viewBox="0 0 160 70" overflow="visible"><g><polygon points="80,0 160,35 80,70 0,35" stroke="var(--apollon2-primary-contrast)" fill="var(--apollon2-background)" stroke-width="1"></polygon><text x="80" y="35" fill="var(--apollon2-primary-contrast)" dominant-baseline="central" text-anchor="middle" font-weight="600" font-family="Inter, system-ui, Avenir, Helvetica, Arial, sans-serif" pointer-events="none"><tspan x="80" dy="0">Decision</tspan></text></g></svg></g><g transform="translate(300, 620)"><svg width="160" height="70" viewBox="0 0 160 70" overflow="visible"><g><rect stroke="var(--apollon2-primary-contrast)" fill="var(--apollon2-background)" stroke-width="1" x="0" y="0" width="160" height="70"></rect><text x="80" y="35" fill="var(--apollon2-primary-contrast)" dominant-baseline="central" text-anchor="middle" font-weight="600" font-family="Inter, system-ui, Avenir, Helvetica, Arial, sans-serif" pointer-events="none"><tspan x="80" dy="0">Process</tspan></text></g></svg></g><g transform="translate(300, 780)"><svg width="160" height="70" viewBox="0 0 160 70" overflow="visible"><g><rect stroke="var(--apollon2-primary-contrast)" fill="var(--apollon2-background)" stroke-width="1" x="0" y="0" width="160" height="70" rx="10" ry="10"></rect><text x="80" y="35" fill="var(--apollon2-primary-contrast)" dominant-baseline="central" text-anchor="middle" font-weight="600" font-family="Inter, system-ui, Avenir, Helvetica, Arial, sans-serif" pointer-events="none"><tspan x="80" dy="0">Terminal</tspan></text></g></svg></g><g transform="translate(300, 920)"><svg width="160" height="70" viewBox="0 0 160 70" overflow="visible"><g><rect stroke="var(--apollon2-primary-contrast)" fill="var(--apollon2-background)" stroke-width="1" x="0" y="0" width="160" height="70"></rect><text x="80" y="35" fill="var(--apollon2-primary-contrast)" dominant-baseline="central" text-anchor="middle" font-weight="600" font-family="Inter, system-ui, Avenir, Helvetica, Arial, sans-serif" pointer-events="none"><tspan x="80" dy="0">Process</tspan></text></g></svg></g></g><g><g class="edge-container"><path id="6a33334f-866d-434b-b477-6ad74558b037" marker-end="url(#black-arrow)" pointer-events="none" d="M 350 199.5 L 350 249.75 L 150 249.75 L 150 300" fill="none" class="react-flow__edge-path" style="stroke: var(--apollon2-primary-contrast); stroke-dasharray: 0; transition: none; opacity: 1;"></path><path d="M 350 199.5 L 350 249.75 L 150 249.75 L 150 300" fill="none" stroke-opacity="0" stroke-width="20" class="react-flow__edge-interaction"></path><path class="edge-overlay" d="M 350 199.5 L 350 249.75 L 150 249.75 L 150 300 M 150 300 L 150 300" fill="none" stroke-width="15" pointer-events="stroke" style="opacity: 0.4;"></path><circle cx="350" cy="199.5" r="10" fill="transparent" stroke="transparent" stroke-width="0" pointer-events="all" style="cursor: crosshair;"></circle><circle class="target-edge-marker-grab" cx="150" cy="300" r="10" fill="transparent" stroke="transparent" stroke-width="0" pointer-events="all" style="cursor: crosshair;"></circle><circle class="edge-circle" pointer-events="all" cx="250" cy="249.75" r="10" fill="lightgray" stroke="none" style="cursor: grab; z-index: 9999;"></circle></g><path id="6a33334f-866d-434b-b477-6ad74558b037" marker-end="url(#black-arrow)" pointer-events="none" d="M 350 199.5 L 350 249.75 L 150 249.75 L 150 300" fill="none" class="react-flow__edge-path" style="stroke: var(--apollon2-primary-contrast); stroke-dasharray: 0; transition: none; opacity: 1;"></path><path d="M 350 199.5 L 350 249.75 L 150 249.75 L 150 300" fill="none" stroke-opacity="0" stroke-width="20" class="react-flow__edge-interaction"></path><path class="edge-overlay" d="M 350 199.5 L 350 249.75 L 150 249.75 L 150 300 M 150 300 L 150 300" fill="none" stroke-width="15" pointer-events="stroke" style="opacity: 0.4;"></path><circle cx="350" cy="199.5" r="10" fill="transparent" stroke="transparent" stroke-width="0" pointer-events="all" style="cursor: crosshair;"></circle><circle class="target-edge-marker-grab" cx="150" cy="300" r="10" fill="transparent" stroke="transparent" stroke-width="0" pointer-events="all" style="cursor: crosshair;"></circle><circle class="react-flow__edgeupdater react-flow__edgeupdater-source" cx="350" cy="213" r="10" stroke="transparent" fill="transparent"></circle><circle class="react-flow__edgeupdater react-flow__edgeupdater-target" cx="150" cy="287" r="10" stroke="transparent" fill="transparent"></circle><g class="edge-container"><path id="81237310-2f26-4ca8-9955-9220eaae9c5c" marker-end="url(#black-arrow)" pointer-events="none" d="M 390 199.5 L 390 249.75 L 560 249.75 L 560 300" fill="none" class="react-flow__edge-path" style="stroke: var(--apollon2-primary-contrast); stroke-dasharray: 0; transition: none; opacity: 1;"></path><path d="M 390 199.5 L 390 249.75 L 560 249.75 L 560 300" fill="none" stroke-opacity="0" stroke-width="20" class="react-flow__edge-interaction"></path><path class="edge-overlay" d="M 390 199.5 L 390 249.75 L 560 249.75 L 560 300 M 560 300 L 560 300" fill="none" stroke-width="15" pointer-events="stroke" style="opacity: 0.4;"></path><circle cx="390" cy="199.5" r="10" fill="transparent" stroke="transparent" stroke-width="0" pointer-events="all" style="cursor: crosshair;"></circle><circle class="target-edge-marker-grab" cx="560" cy="300" r="10" fill="transparent" stroke="transparent" stroke-width="0" pointer-events="all" style="cursor: crosshair;"></circle><circle class="edge-circle" pointer-events="all" cx="475" cy="249.75" r="10" fill="lightgray" stroke="none" style="cursor: grab; z-index: 9999;"></circle></g><path id="81237310-2f26-4ca8-9955-9220eaae9c5c" marker-end="url(#black-arrow)" pointer-events="none" d="M 390 199.5 L 390 249.75 L 560 249.75 L 560 300" fill="none" class="react-flow__edge-path" style="stroke: var(--apollon2-primary-contrast); stroke-dasharray: 0; transition: none; opacity: 1;"></path><path d="M 390 199.5 L 390 249.75 L 560 249.75 L 560 300" fill="none" stroke-opacity="0" stroke-width="20" class="react-flow__edge-interaction"></path><path class="edge-overlay" d="M 390 199.5 L 390 249.75 L 560 249.75 L 560 300 M 560 300 L 560 300" fill="none" stroke-width="15" pointer-events="stroke" style="opacity: 0.4;"></path><circle cx="390" cy="199.5" r="10" fill="transparent" stroke="transparent" stroke-width="0" pointer-events="all" style="cursor: crosshair;"></circle><circle class="target-edge-marker-grab" cx="560" cy="300" r="10" fill="transparent" stroke="transparent" stroke-width="0" pointer-events="all" style="cursor: crosshair;"></circle><circle class="react-flow__edgeupdater react-flow__edgeupdater-source" cx="390" cy="213" r="10" stroke="transparent" fill="transparent"></circle><circle class="react-flow__edgeupdater react-flow__edgeupdater-target" cx="560" cy="287" r="10" stroke="transparent" fill="transparent"></circle><g class="edge-container"><path id="2d357a40-8305-4d54-bb06-97cccc815cdb" marker-end="url(#black-arrow)" pointer-events="none" d="M 150 369.5 L 150 414.75 L 360 414.75 L 360 460" fill="none" class="react-flow__edge-path" style="stroke: var(--apollon2-primary-contrast); stroke-dasharray: 0; transition: none; opacity: 1;"></path><path d="M 150 369.5 L 150 414.75 L 360 414.75 L 360 460" fill="none" stroke-opacity="0" stroke-width="20" class="react-flow__edge-interaction"></path><path class="edge-overlay" d="M 150 369.5 L 150 414.75 L 360 414.75 L 360 460 M 360 460 L 360 460" fill="none" stroke-width="15" pointer-events="stroke" style="opacity: 0.4;"></path><circle cx="150" cy="369.5" r="10" fill="transparent" stroke="transparent" stroke-width="0" pointer-events="all" style="cursor: crosshair;"></circle><circle class="target-edge-marker-grab" cx="360" cy="460" r="10" fill="transparent" stroke="transparent" stroke-width="0" pointer-events="all" style="cursor: crosshair;"></circle><circle class="edge-circle" pointer-events="all" cx="255" cy="414.75" r="10" fill="lightgray" stroke="none" style="cursor: grab; z-index: 9999;"></circle></g><path id="2d357a40-8305-4d54-bb06-97cccc815cdb" marker-end="url(#black-arrow)" pointer-events="none" d="M 150 369.5 L 150 414.75 L 360 414.75 L 360 460" fill="none" class="react-flow__edge-path" style="stroke: var(--apollon2-primary-contrast); stroke-dasharray: 0; transition: none; opacity: 1;"></path><path d="M 150 369.5 L 150 414.75 L 360 414.75 L 360 460" fill="none" stroke-opacity="0" stroke-width="20" class="react-flow__edge-interaction"></path><path class="edge-overlay" d="M 150 369.5 L 150 414.75 L 360 414.75 L 360 460 M 360 460 L 360 460" fill="none" stroke-width="15" pointer-events="stroke" style="opacity: 0.4;"></path><circle cx="150" cy="369.5" r="10" fill="transparent" stroke="transparent" stroke-width="0" pointer-events="all" style="cursor: crosshair;"></circle><circle class="target-edge-marker-grab" cx="360" cy="460" r="10" fill="transparent" stroke="transparent" stroke-width="0" pointer-events="all" style="cursor: crosshair;"></circle><circle class="react-flow__edgeupdater react-flow__edgeupdater-source" cx="150" cy="383" r="10" stroke="transparent" fill="transparent"></circle><circle class="react-flow__edgeupdater react-flow__edgeupdater-target" cx="360" cy="447" r="10" stroke="transparent" fill="transparent"></circle><g class="edge-container"><path id="c46a1cee-dcd3-4039-941c-cdaed5ddc681" marker-end="url(#black-arrow)" pointer-events="none" d="M 560 369.5 L 560 414.75 L 360 414.75 L 360 460" fill="none" class="react-flow__edge-path" style="stroke: var(--apollon2-primary-contrast); stroke-dasharray: 0; transition: none; opacity: 1;"></path><path d="M 560 369.5 L 560 414.75 L 360 414.75 L 360 460" fill="none" stroke-opacity="0" stroke-width="20" class="react-flow__edge-interaction"></path><path class="edge-overlay" d="M 560 369.5 L 560 414.75 L 360 414.75 L 360 460 M 360 460 L 360 460" fill="none" stroke-width="15" pointer-events="stroke" style="opacity: 0.4;"></path><circle cx="560" cy="369.5" r="10" fill="transparent" stroke="transparent" stroke-width="0" pointer-events="all" style="cursor: crosshair;"></circle><circle class="target-edge-marker-grab" cx="360" cy="460" r="10" fill="transparent" stroke="transparent" stroke-width="0" pointer-events="all" style="cursor: crosshair;"></circle><circle class="edge-circle" pointer-events="all" cx="460" cy="414.75" r="10" fill="lightgray" stroke="none" style="cursor: grab; z-index: 9999;"></circle></g><path id="c46a1cee-dcd3-4039-941c-cdaed5ddc681" marker-end="url(#black-arrow)" pointer-events="none" d="M 560 369.5 L 560 414.75 L 360 414.75 L 360 460" fill="none" class="react-flow__edge-path" style="stroke: var(--apollon2-primary-contrast); stroke-dasharray: 0; transition: none; opacity: 1;"></path><path d="M 560 369.5 L 560 414.75 L 360 414.75 L 360 460" fill="none" stroke-opacity="0" stroke-width="20" class="react-flow__edge-interaction"></path><path class="edge-overlay" d="M 560 369.5 L 560 414.75 L 360 414.75 L 360 460 M 360 460 L 360 460" fill="none" stroke-width="15" pointer-events="stroke" style="opacity: 0.4;"></path><circle cx="560" cy="369.5" r="10" fill="transparent" stroke="transparent" stroke-width="0" pointer-events="all" style="cursor: crosshair;"></circle><circle class="target-edge-marker-grab" cx="360" cy="460" r="10" fill="transparent" stroke="transparent" stroke-width="0" pointer-events="all" style="cursor: crosshair;"></circle><circle class="react-flow__edgeupdater react-flow__edgeupdater-source" cx="560" cy="383" r="10" stroke="transparent" fill="transparent"></circle><circle class="react-flow__edgeupdater react-flow__edgeupdater-target" cx="360" cy="447" r="10" stroke="transparent" fill="transparent"></circle><g class="edge-container"><path id="5b6cff95-47f7-49ab-8d42-e95e36babc01" marker-end="url(#black-arrow)" pointer-events="none" d="M 360 529.5 L 360 574.75 L 380 574.75 L 380 620" fill="none" class="react-flow__edge-path" style="stroke: var(--apollon2-primary-contrast); stroke-dasharray: 0; transition: none; opacity: 1;"></path><path d="M 360 529.5 L 360 574.75 L 380 574.75 L 380 620" fill="none" stroke-opacity="0" stroke-width="20" class="react-flow__edge-interaction"></path><path class="edge-overlay" d="M 360 529.5 L 360 574.75 L 380 574.75 L 380 620 M 380 620 L 380 620" fill="none" stroke-width="15" pointer-events="stroke" style="opacity: 0.4;"></path><circle cx="360" cy="529.5" r="10" fill="transparent" stroke="transparent" stroke-width="0" pointer-events="all" style="cursor: crosshair;"></circle><circle class="target-edge-marker-grab" cx="380" cy="620" r="10" fill="transparent" stroke="transparent" stroke-width="0" pointer-events="all" style="cursor: crosshair;"></circle><circle class="edge-circle" pointer-events="all" cx="370" cy="574.75" r="10" fill="lightgray" stroke="none" style="cursor: grab; z-index: 9999;"></circle></g><path id="5b6cff95-47f7-49ab-8d42-e95e36babc01" marker-end="url(#black-arrow)" pointer-events="none" d="M 360 529.5 L 360 574.75 L 380 574.75 L 380 620" fill="none" class="react-flow__edge-path" style="stroke: var(--apollon2-primary-contrast); stroke-dasharray: 0; transition: none; opacity: 1;"></path><path d="M 360 529.5 L 360 574.75 L 380 574.75 L 380 620" fill="none" stroke-opacity="0" stroke-width="20" class="react-flow__edge-interaction"></path><path class="edge-overlay" d="M 360 529.5 L 360 574.75 L 380 574.75 L 380 620 M 380 620 L 380 620" fill="none" stroke-width="15" pointer-events="stroke" style="opacity: 0.4;"></path><circle cx="360" cy="529.5" r="10" fill="transparent" stroke="transparent" stroke-width="0" pointer-events="all" style="cursor: crosshair;"></circle><circle class="target-edge-marker-grab" cx="380" cy="620" r="10" fill="transparent" stroke="transparent" stroke-width="0" pointer-events="all" style="cursor: crosshair;"></circle><circle class="react-flow__edgeupdater react-flow__edgeupdater-source" cx="360" cy="543" r="10" stroke="transparent" fill="transparent"></circle><circle class="react-flow__edgeupdater react-flow__edgeupdater-target" cx="380" cy="607" r="10" stroke="transparent" fill="transparent"></circle><g class="edge-container"><path id="897676b3-5131-4522-ae9c-a34e1b3ea1d5" marker-end="url(#black-arrow)" pointer-events="none" d="M 380 689.5 L 380 780" fill="none" class="react-flow__edge-path" style="stroke: var(--apollon2-primary-contrast); stroke-dasharray: 0; transition: none; opacity: 1;"></path><path d="M 380 689.5 L 380 780" fill="none" stroke-opacity="0" stroke-width="20" class="react-flow__edge-interaction"></path><path class="edge-overlay" d="M 380 689.5 L 380 780 M 380 780 L 380 780" fill="none" stroke-width="15" pointer-events="stroke" style="opacity: 0.4;"></path><circle cx="380" cy="689.5" r="10" fill="transparent" stroke="transparent" stroke-width="0" pointer-events="all" style="cursor: crosshair;"></circle><circle class="target-edge-marker-grab" cx="380" cy="780" r="10" fill="transparent" stroke="transparent" stroke-width="0" pointer-events="all" style="cursor: crosshair;"></circle></g><path id="897676b3-5131-4522-ae9c-a34e1b3ea1d5" marker-end="url(#black-arrow)" pointer-events="none" d="M 380 689.5 L 380 780" fill="none" class="react-flow__edge-path" style="stroke: var(--apollon2-primary-contrast); stroke-dasharray: 0; transition: none; opacity: 1;"></path><path d="M 380 689.5 L 380 780" fill="none" stroke-opacity="0" stroke-width="20" class="react-flow__edge-interaction"></path><path class="edge-overlay" d="M 380 689.5 L 380 780 M 380 780 L 380 780" fill="none" stroke-width="15" pointer-events="stroke" style="opacity: 0.4;"></path><circle cx="380" cy="689.5" r="10" fill="transparent" stroke="transparent" stroke-width="0" pointer-events="all" style="cursor: crosshair;"></circle><circle class="target-edge-marker-grab" cx="380" cy="780" r="10" fill="transparent" stroke="transparent" stroke-width="0" pointer-events="all" style="cursor: crosshair;"></circle><circle class="react-flow__edgeupdater react-flow__edgeupdater-source" cx="380" cy="703" r="10" stroke="transparent" fill="transparent"></circle><circle class="react-flow__edgeupdater react-flow__edgeupdater-target" cx="380" cy="767" r="10" stroke="transparent" fill="transparent"></circle><g class="edge-container"><path id="4b5b2a38-b04d-45df-b61e-ebda8bb76734" marker-end="url(#black-arrow)" pointer-events="none" d="M 380 849.5 L 380 920" fill="none" class="react-flow__edge-path" style="stroke: var(--apollon2-primary-contrast); stroke-dasharray: 0; transition: none; opacity: 1;"></path><path d="M 380 849.5 L 380 920" fill="none" stroke-opacity="0" stroke-width="20" class="react-flow__edge-interaction"></path><path class="edge-overlay" d="M 380 849.5 L 380 920 M 380 920 L 380 920" fill="none" stroke-width="15" pointer-events="stroke" style="opacity: 0.4;"></path><circle cx="380" cy="849.5" r="10" fill="transparent" stroke="transparent" stroke-width="0" pointer-events="all" style="cursor: crosshair;"></circle><circle class="target-edge-marker-grab" cx="380" cy="920" r="10" fill="transparent" stroke="transparent" stroke-width="0" pointer-events="all" style="cursor: crosshair;"></circle></g><path id="4b5b2a38-b04d-45df-b61e-ebda8bb76734" marker-end="url(#black-arrow)" pointer-events="none" d="M 380 849.5 L 380 920" fill="none" class="react-flow__edge-path" style="stroke: var(--apollon2-primary-contrast); stroke-dasharray: 0; transition: none; opacity: 1;"></path><path d="M 380 849.5 L 380 920" fill="none" stroke-opacity="0" stroke-width="20" class="react-flow__edge-interaction"></path><path class="edge-overlay" d="M 380 849.5 L 380 920 M 380 920 L 380 920" fill="none" stroke-width="15" pointer-events="stroke" style="opacity: 0.4;"></path><circle cx="380" cy="849.5" r="10" fill="transparent" stroke="transparent" stroke-width="0" pointer-events="all" style="cursor: crosshair;"></circle><circle class="target-edge-marker-grab" cx="380" cy="920" r="10" fill="transparent" stroke="transparent" stroke-width="0" pointer-events="all" style="cursor: crosshair;"></circle><circle class="react-flow__edgeupdater react-flow__edgeupdater-source" cx="380" cy="863" r="10" stroke="transparent" fill="transparent"></circle><circle class="react-flow__edgeupdater react-flow__edgeupdater-target" cx="380" cy="907" r="10" stroke="transparent" fill="transparent"></circle></g></svg>